<svg width="150" height="150" viewBox="0 0 150 150" fill="none" xmlns="http://www.w3.org/2000/svg">
<g clip-path="url(#clip0_115_2)">
<path d="M55.3813 48.8418C51.7754 48.8418 48.8416 51.7756 48.8416 55.3814C48.8416 58.9873 51.7754 61.9211 55.3813 61.9211C58.9871 61.9211 61.9209 58.987 61.9209 55.3814C61.9209 51.7756 58.9871 48.8418 55.3813 48.8418Z" fill="white"/>
<path d="M94.619 88.0791C91.0132 88.0791 88.0794 91.0129 88.0794 94.6187C88.0794 98.2246 91.0132 101.158 94.619 101.158C98.2249 101.158 101.159 98.2246 101.159 94.6187C101.159 91.0129 98.2246 88.0791 94.619 88.0791Z" fill="white"/>
<path d="M148.58 71.5486L135.852 58.6946L140.448 41.1983C141.131 38.5964 139.592 35.9295 136.997 35.2209L119.546 30.4534L114.779 13.003C114.07 10.4082 111.404 8.86807 108.802 9.55186L91.3055 14.1485L78.4512 1.41965C76.5396 -0.473217 73.4602 -0.473217 71.5489 1.41965L58.6949 14.1485L41.1985 9.55215C38.5961 8.86837 35.9301 10.4085 35.2211 13.0033L30.4536 30.4537L13.0033 35.2211C10.4085 35.9301 8.86861 38.597 9.55211 41.1986L14.1485 58.6949L1.41989 71.5486C-0.472973 73.4602 -0.472973 76.5396 1.41989 78.4509L14.1488 91.3049L9.5524 108.801C8.8689 111.403 10.4087 114.07 13.0036 114.779L30.4539 119.546L35.2214 136.997C35.9304 139.591 38.5961 141.131 41.1988 140.448L58.6952 135.851L71.5492 148.58C72.5048 149.527 73.7526 150 75.0003 150C76.2481 150 77.4958 149.527 78.4515 148.58L91.3055 135.851L108.802 140.448C111.404 141.131 114.07 139.591 114.779 136.997L119.547 119.546L136.997 114.779C139.592 114.07 141.132 111.403 140.448 108.801L135.852 91.3049L148.58 78.4509C150.473 76.5396 150.473 73.4602 148.58 71.5486ZM39.0323 55.3809C39.0323 46.366 46.3665 39.0318 55.3814 39.0318C64.3963 39.0318 71.7305 46.366 71.7305 55.3809C71.7305 64.3958 64.3963 71.73 55.3814 71.73C46.3665 71.73 39.0323 64.3958 39.0323 55.3809ZM55.5795 101.356C54.6217 102.314 53.3664 102.793 52.1116 102.793C50.8565 102.793 49.6012 102.314 48.6437 101.356C46.7283 99.4409 46.7283 96.3355 48.6437 94.4201L94.4209 48.6429C96.336 46.7275 99.4418 46.7275 101.357 48.6429C103.273 50.5583 103.273 53.6638 101.357 55.5792L55.5795 101.356ZM94.6192 110.968C85.6043 110.968 78.2701 103.634 78.2701 94.6187C78.2701 85.6038 85.6043 78.2696 94.6192 78.2696C103.634 78.2696 110.968 85.6038 110.968 94.6187C110.968 103.634 103.634 110.968 94.6192 110.968Z" fill="white"/>
</g>
<defs>
<clipPath id="clip0_115_2">
<rect width="150" height="150" fill="white"/>
</clipPath>
</defs>
</svg>
