<svg width="800" height="800" viewBox="0 0 800 800" fill="none" xmlns="http://www.w3.org/2000/svg">
<path d="M75 550H112.5H690H725C740 550 750 540 750 525C750 510 740 500 725 500H700C695 357.5 597.5 240 467.5 207.5C472.5 197.5 475 187.5 475 175C475 132.5 442.5 100 400 100C357.5 100 325 132.5 325 175C325 187.5 327.5 197.5 332.5 207.5C202.5 240 105 357.5 100 500H75C60 500 50 510 50 525C50 540 60 550 75 550Z" fill="white"/>
<path d="M137.5 600L157.5 637.5C160 645 170 650 180 650H622.5C632.5 650 640 645 645 637.5L665 600H137.5Z" fill="white"/>
</svg>
