<svg width="132" height="131" viewBox="0 0 132 131" fill="none" xmlns="http://www.w3.org/2000/svg">
<path d="M43.9805 46.6499L88.3705 46.3199C99.3905 46.2399 108.39 55.1099 108.47 66.1299C108.55 77.1499 99.6805 86.1499 88.6605 86.2299L44.2705 86.5599C33.2505 86.6399 24.2505 77.7699 24.1705 66.7499C24.0905 55.7299 32.9605 46.7299 43.9805 46.6499Z" fill="#F5BF00"/>
<path d="M44.1309 86.5597C55.1545 86.5597 64.0909 77.6234 64.0909 66.5998C64.0909 55.5762 55.1545 46.6396 44.1309 46.6396C33.1073 46.6396 24.1709 55.5762 24.1709 66.5998C24.1709 77.6234 33.1073 86.5597 44.1309 86.5597Z" fill="#2D2A2E"/>
<path d="M90.5306 40.1205L46.1406 40.4505C35.1206 40.5305 26.1206 31.6605 26.0406 20.6405C25.9606 9.6205 34.8306 0.6205 45.8506 0.5405L90.2406 0.210498C101.261 0.130498 110.261 9.0005 110.341 20.0205C110.431 31.0405 101.561 40.0405 90.5306 40.1205Z" fill="#F5BF00"/>
<path d="M90.3907 40.1202C101.414 40.1202 110.351 31.1838 110.351 20.1602C110.351 9.1366 101.414 0.200195 90.3907 0.200195C79.3671 0.200195 70.4307 9.1366 70.4307 20.1602C70.4307 31.1838 79.3671 40.1202 90.3907 40.1202Z" fill="#2D2A2E"/>
<path d="M13.55 106.71C13.29 105.95 12.82 105.39 12.33 104.99C11.5 104.36 10.61 104.3 9.84999 104.3C9.01999 104.3 7.97 104.43 7.07 105.22C6.41 105.81 5.90999 106.81 5.90999 107.83C5.90999 108.52 6.16999 109.25 6.83999 109.85C7.26999 110.25 8.22999 110.78 8.68999 111.01L10.67 111.94C11.69 112.4 12.68 113 13.48 113.82C14.73 115.11 14.9699 116.26 14.9699 117.69C14.9699 118.98 14.74 120.99 13.12 122.68C11.27 124.6 8.95999 124.79 7.40999 124.79C5.62999 124.79 4.16999 124.46 2.84999 123.14C1.88999 122.15 1.17 120.7 1 119.11L3.43999 118.45C3.50999 119.57 3.93999 120.6 4.62999 121.32C5.58999 122.31 6.67999 122.48 7.76999 122.48C8.82999 122.48 10.18 122.31 11.21 121.26C12.04 120.4 12.4 119.11 12.4 118.06C12.4 116.74 11.81 115.78 11.21 115.25C10.78 114.85 9.75999 114.26 9.05999 113.93L7.30999 113.1C6.71999 112.84 5.42999 112.17 4.69999 111.41C4.10999 110.78 3.43999 109.73 3.43999 108.01C3.43999 106.46 3.89999 105.07 5.15999 103.85C6.54999 102.5 8.16999 102 10.02 102C10.98 102 12.4599 102.13 13.65 102.92C14.5099 103.48 15.24 104.41 15.63 105.43L13.55 106.71Z" fill="white"/>
<path d="M25.9996 102.35C28.2496 102.35 30.1996 102.94 31.3196 104.04C32.2096 104.9 32.8396 106.35 32.8396 108.2C32.8396 110.35 32.0096 111.97 31.0596 112.89C30.1396 113.78 28.3496 114.81 24.8196 114.81H22.9396L21.7496 124.39H19.3096L22.0196 102.36H25.9996V102.35ZM23.1896 112.49H25.2696C26.4596 112.49 28.0796 112.36 29.2296 111.3C29.8896 110.71 30.4196 109.71 30.4196 108.26C30.4196 106.77 29.8296 105.91 29.1996 105.45C28.3096 104.76 26.9496 104.66 25.9596 104.66H24.1396L23.1896 112.49Z" fill="white"/>
<path d="M49.3198 105.52H40.5298L39.8698 111.1H48.3898L47.9898 114.27H39.4698L38.6098 121.21H47.3998L46.9998 124.38H34.8398L37.5498 102.35H49.7098L49.3198 105.52Z" fill="white"/>
<path d="M66.4995 105.52H57.7095L57.0495 111.1H65.5695L65.1695 114.27H56.6495L55.7895 121.21H64.5795L64.1795 124.38H52.0195L54.7295 102.35H66.8895L66.4995 105.52Z" fill="white"/>
<path d="M78.0203 102.35C80.3003 102.35 83.9704 102.68 86.4404 105.16C87.8904 106.61 89.0804 109.03 89.0804 112.49C89.0804 117.54 86.7703 120.29 85.6404 121.34C83.1004 123.75 79.6303 124.38 75.6303 124.38H68.8604L71.5704 102.35H78.0203ZM74.4903 120.09H76.0404C77.5304 120.09 79.8704 119.99 81.6604 118.4C82.9204 117.28 83.8704 115.23 83.8704 112.62C83.8704 110.67 83.2403 109.12 82.2803 108.19C81.2204 107.17 79.4104 106.64 77.6904 106.64H76.1404L74.4903 120.09Z" fill="white"/>
<path d="M97.1802 114.11L90.7402 102.35H96.5502L100.15 109.19L105.4 102.35H111.61L102.26 114.11L101.01 124.38H95.9202L97.1802 114.11Z" fill="white"/>
<path d="M122.39 114.74L121.2 124.39H115.62L116.84 114.58L111.22 102.36H117.4L118.92 105.9C119.81 108.01 119.88 108.15 120.11 108.87C120.18 109.04 120.24 109.3 120.34 109.6C120.64 109.04 120.93 108.58 121.43 107.85L125.23 102.37H132L122.39 114.74Z" fill="white"/>
</svg>
