<svg width="114" height="126" viewBox="0 0 114 126" fill="none" xmlns="http://www.w3.org/2000/svg">
<path d="M55.75 0.5C54.5 0.5 53.25 1.125 52.625 1.75L43.875 9.875L33.875 8C30.75 7.375 28.875 9.25 28.25 11.75L26.375 23L15.75 28C13.25 29.25 12.625 31.75 13.875 34.25L18.875 44.25L13.875 54.25C12.625 56.75 13.875 59.25 15.75 60.5L26.375 65.5L28.25 76.75C28.875 79.25 31.375 81.125 33.875 80.5L45.75 78.625L54.5 86.75C56.375 88.625 59.5 88.625 61.375 86.75L70.125 78.625L82 80.5C84.5 81.125 87 79.25 87.625 76.75L89.5 65.5L100.125 60.5C102.625 59.25 103.25 56.75 102 54.25L95.125 44.25L100.125 34.25C101.375 31.75 100.75 29.25 98.25 28L87.625 23L85.75 11.75C85.125 9.25 82.625 7.375 80.125 8L68.25 9.875L59.5 1.75C58.875 0.5 57 0.5 55.75 0.5ZM20.125 69.875L0.75 108.625L23.25 105.5L34.5 125.5L50.75 92.375L49.5 91.125L43.25 85.5L34.5 86.75C28.875 87.375 23.25 83.625 22 78L20.125 69.875ZM93.875 69.875L92 78C90.75 83 86.375 86.75 81.375 86.75H80.125L71.375 85.5L65.125 91.125L63.875 92.375L80.125 125.5L91.375 106.125L113.875 109.25L93.875 69.875Z" fill="white"/>
</svg>
